<svg width="64" height="64" xmlns="http://www.w3.org/2000/svg">

 <g>
  <title>background</title>
  <rect fill="none" id="canvas_background" height="402" width="582" y="-1" x="-1"/>
 </g>
 <g>
  <title>Layer 1</title>
  <g stroke="null" id="svg_2">
   <path stroke="null" fill="#333333" id="Fill-133" d="m57.19726,63.74854l-50.68249,0c-3.45562,0 -6.33531,-2.87968 -6.33531,-6.33531l0,-46.50693c0,-3.45563 2.30375,-6.33531 5.32742,-6.33531l3.16766,0l0,4.17554l-3.16766,0c-0.43195,0 -1.00789,0.86391 -1.00789,2.15977l0,46.50693c0,1.15188 1.00789,2.15977 2.15977,2.15977l50.68248,0c1.15188,0 2.15977,-1.00789 2.15977,-2.15977l0,-46.50693c0,-1.29586 -0.71993,-2.15977 -1.00789,-2.15977l-3.16766,0l0,-4.17554l3.16766,0c2.87968,0 5.32742,2.87968 5.32742,6.33531l0,46.50693c-0.28797,3.45563 -3.16766,6.33531 -6.62328,6.33531" class="st0"/>
   <path stroke="null" fill="#333333" id="Fill-134" d="m15.00985,13.06606c-1.151875,0 -2.159765,-1.00789 -2.159765,-2.159765l0,-8.495075c0,-1.151875 1.00789,-2.159765 2.159765,-2.159765s2.159765,1.00789 2.159765,2.159765l0,8.495075c-0.143984,1.151875 -1.00789,2.159765 -2.159765,2.159765" class="st0"/>
   <path stroke="null" fill="#333333" id="Fill-135" d="m48.702182,13.06606c-1.151875,0 -2.159765,-1.00789 -2.159765,-2.159765l0,-8.495075c0,-1.151875 1.00789,-2.159765 2.159765,-2.159765s2.159765,1.00789 2.159765,2.159765l0,8.495075c0,1.151875 -1.00789,2.159765 -2.159765,2.159765" class="st0"/>
   <polygon stroke="null" fill="#333333" points="21.466668128967285,4.692482948303223 42.48837375640869,4.692482948303223 42.48837375640869,9.012012481689453 21.466668128967285,9.012012481689453 " id="Fill-136" class="st0"/>
   <polygon stroke="null" fill="#333333" points="4.3550091832876205,17.241622924804688 59.71712599694729,17.241622924804688 59.71712599694729,21.561153411865234 4.3550091832876205,21.561153411865234 " id="Fill-137" class="st0"/>
   <polygon stroke="null" fill="#333333" points="50.861947163939476,25.736690521240234 55.03749190270901,25.736690521240234 55.03749190270901,29.9122257232666 50.861947163939476,29.9122257232666 " id="Fill-138" class="st0"/>
   <polygon stroke="null" fill="#333333" points="42.36686812341213,25.736690521240234 46.686402425169945,25.736690521240234 46.686402425169945,29.9122257232666 42.36686812341213,29.9122257232666 " id="Fill-139" class="st0"/>
   <polygon stroke="null" fill="#333333" points="34.01577864587307,25.736690521240234 38.19132719933987,25.736690521240234 38.19132719933987,29.9122257232666 34.01577864587307,29.9122257232666 " id="Fill-140" class="st0"/>
   <polygon stroke="null" fill="#333333" points="25.520705327391624,25.736690521240234 29.696250066161156,25.736690521240234 29.696250066161156,29.9122257232666 25.520705327391624,29.9122257232666 " id="Fill-141" class="st0"/>
   <polygon stroke="null" fill="#333333" points="16.90412425994873,25.736690521240234 21.223654747009277,25.736690521240234 21.223654747009277,29.9122257232666 16.90412425994873,29.9122257232666 " id="Fill-142" class="st0"/>
   <polygon stroke="null" fill="#333333" points="50.861947163939476,34.231754302978516 55.03749190270901,34.231754302978516 55.03749190270901,38.407291412353516 50.861947163939476,38.407291412353516 " id="Fill-143" class="st0"/>
   <polygon stroke="null" fill="#333333" points="42.36686812341213,34.231754302978516 46.686402425169945,34.231754302978516 46.686402425169945,38.407291412353516 42.36686812341213,38.407291412353516 " id="Fill-144" class="st0"/>
   <polygon stroke="null" fill="#333333" points="34.01577864587307,34.231754302978516 38.19132719933987,34.231754302978516 38.19132719933987,38.407291412353516 34.01577864587307,38.407291412353516 " id="Fill-145" class="st0"/>
   <polygon stroke="null" fill="#333333" points="25.520705327391624,34.231754302978516 29.696250066161156,34.231754302978516 29.696250066161156,38.407291412353516 25.520705327391624,38.407291412353516 " id="Fill-146" class="st0"/>
   <polygon stroke="null" fill="#333333" points="16.90412425994873,34.231754302978516 21.223654747009277,34.231754302978516 21.223654747009277,38.407291412353516 16.90412425994873,38.407291412353516 " id="Fill-147" class="st0"/>
   <polygon stroke="null" fill="#333333" points="8.553031921386719,34.231754302978516 12.728580474853516,34.231754302978516 12.728580474853516,38.407291412353516 8.553031921386719,38.407291412353516 " id="Fill-148" class="st0"/>
   <polygon stroke="null" fill="#333333" points="50.861947163939476,42.582828521728516 55.03749190270901,42.582828521728516 55.03749190270901,46.9023551940918 50.861947163939476,46.9023551940918 " id="Fill-149" class="st0"/>
   <polygon stroke="null" fill="#333333" points="42.36686812341213,42.582828521728516 46.686402425169945,42.582828521728516 46.686402425169945,46.9023551940918 42.36686812341213,46.9023551940918 " id="Fill-150" class="st0"/>
   <polygon stroke="null" fill="#333333" points="34.01577864587307,42.582828521728516 38.19132719933987,42.582828521728516 38.19132719933987,46.9023551940918 34.01577864587307,46.9023551940918 " id="Fill-151" class="st0"/>
   <polygon stroke="null" fill="#333333" points="25.520705327391624,42.582828521728516 29.696250066161156,42.582828521728516 29.696250066161156,46.9023551940918 25.520705327391624,46.9023551940918 " id="Fill-152" class="st0"/>
   <polygon stroke="null" fill="#333333" points="17.025630101561546,42.582828521728516 21.345160588622093,42.582828521728516 21.345160588622093,46.9023551940918 17.025630101561546,46.9023551940918 " id="Fill-153" class="st0"/>
   <polygon stroke="null" fill="#333333" points="8.674538716673851,42.582828521728516 12.850087270140648,42.582828521728516 12.850087270140648,46.9023551940918 8.674538716673851,46.9023551940918 " id="Fill-154" class="st0"/>
   <polygon stroke="null" fill="#333333" points="42.36686812341213,51.077938079833984 46.686402425169945,51.077938079833984 46.686402425169945,55.253475189208984 42.36686812341213,55.253475189208984 " id="Fill-155" class="st0"/>
   <polygon stroke="null" fill="#333333" points="34.01577864587307,51.077938079833984 38.19132719933987,51.077938079833984 38.19132719933987,55.253475189208984 34.01577864587307,55.253475189208984 " id="Fill-156" class="st0"/>
   <polygon stroke="null" fill="#333333" points="25.520705327391624,51.077938079833984 29.696250066161156,51.077938079833984 29.696250066161156,55.253475189208984 25.520705327391624,55.253475189208984 " id="Fill-157" class="st0"/>
   <polygon stroke="null" fill="#333333" points="17.025630101561546,51.077938079833984 21.345160588622093,51.077938079833984 21.345160588622093,55.253475189208984 17.025630101561546,55.253475189208984 " id="Fill-158" class="st0"/>
   <polygon stroke="null" fill="#333333" points="8.674538716673851,51.077938079833984 12.850087270140648,51.077938079833984 12.850087270140648,55.253475189208984 8.674538716673851,55.253475189208984 " id="Fill-159" class="st0"/>
  </g>
 </g>
</svg>