<?xml version="1.0" ?><svg height="512" id="svg2" version="1.1" width="512" xmlns="http://www.w3.org/2000/svg" xmlns:cc="http://creativecommons.org/ns#" xmlns:dc="http://purl.org/dc/elements/1.1/" xmlns:inkscape="http://www.inkscape.org/namespaces/inkscape" xmlns:rdf="http://www.w3.org/1999/02/22-rdf-syntax-ns#" xmlns:sodipodi="http://sodipodi.sourceforge.net/DTD/sodipodi-0.dtd" xmlns:svg="http://www.w3.org/2000/svg"><defs id="defs6"/><path d="m 257.37513,127.00064 c -4.8787,-0.007 -9.7473,0.0149 -14.625,0.0625 -26.2155,0.45412 -52.5925,1.09099 -78.5625,4.71875 -8.9623,4.55564 -13.5585,14.55677 -19.1562,22.46875 -10.1207,16.93494 -14.8301,36.39488 -20.4063,55.09375 -2.3394,2.54334 -3.9391,6.08182 -6.5625,8.21875 -2.3465,-0.56737 0.1699,-5.85994 -0.4062,-8.375 1.3737,-7.76868 -7.9248,-12.49868 -14.4063,-9.53125 -6.5599,2.53411 -16.5007,3.20512 -19.0312,10.9375 -0.066,8.76844 8.9788,15.33269 17.4375,14.25 3.8933,0.63545 5.5428,5.48688 7.9375,8.15625 0.2034,14.16215 -3.0151,28.35865 -2.2188,42.625 0.409,9.02682 -0.4947,18.52162 2.2813,27.1875 0.7818,0.82403 1.5324,1.06335 2.25,0.96875 -0.1567,0.51679 -0.2813,1.04709 -0.2813,1.59375 l 0,73.5 c 0,3.2064 2.9186,6.125 6.125,6.125 l 24.5,0 c 3.2065,-0.002 6.125,-2.9186 6.125,-6.125 l 0,-25.34375 215.0937,0 0,25.34375 c 0,3.20644 2.9186,6.1228 6.125,6.125 l 24.5,0 c 3.2066,-0.002 6.123,-2.91856 6.125,-6.125 l 0,-73.5 c -1e-4,-0.58054 -0.1051,-1.14156 -0.2812,-1.6875 4.4068,0.0238 3.2939,-7.08095 4,-10.25 0.7469,-19.03565 0.6945,-38.40513 -2.2812,-57.15625 0.5024,-4.53942 4.4824,-8.73212 7.8437,-11.3125 8.0946,0.39888 17.0373,-4.24526 18.2813,-12.90625 -1.1452,-8.04363 -11.2319,-9.68558 -17.5626,-12 -5.7289,-2.37005 -15.4544,-1.26068 -16.0312,6.375 -0.6075,3.47759 1.6377,8.89166 0.094,11.1875 -3.558,-1.48791 -4.9753,-6.11035 -7.375,-9 -4.8849,-17.08337 -9.3181,-34.78291 -17.6876,-50.65625 -5.7714,-9.23161 -11.5938,-19.37488 -20.5,-25.9375 -15.4385,-3.25252 -31.6838,-2.48997 -47.4374,-4 -14.6189,-0.70691 -29.2702,-1.0101 -43.9063,-1.03125 z m -1.2187,7.90625 c 28.8676,-5.1e-4 57.7392,0.0923 60,0.3125 1.8946,0.18441 4.3437,0.71379 5.5,1.15625 2.2906,0.87653 3.1666,1.80321 8.3124,8.65625 5.1159,6.81315 6.7091,8.5421 12.6563,13.84375 10.1737,9.06927 11.2341,10.55443 14.1563,19.875 0.926,2.95374 3.6751,11.61772 6.125,19.28125 2.4499,7.66352 4.4028,14.36652 4.3437,14.875 l -0.094,0.9375 -24.7185,0.21875 c -47.6706,0.42768 -102.3411,0.5264 -134.4375,0.28125 -17.8209,-0.13612 -39.2943,-0.25299 -47.7187,-0.28125 -13.504,-0.0453 -15.3427,-0.13347 -15.5313,-0.625 -0.1176,-0.30664 1.5967,-6.22623 3.8125,-13.15625 2.2159,-6.93001 4.9814,-15.6397 6.1563,-19.375 3.4607,-11.00226 4.644,-12.89411 11.9375,-19.40625 7.5156,-6.7105 10.625,-9.97502 14.9687,-15.6875 2.3958,-3.15065 4.962,-6.42038 5.7188,-7.25 1.7634,-1.93297 4.3194,-2.87524 8.8125,-3.3125 2.262,-0.22014 31.1323,-0.34325 60,-0.34375 z m -120.9375,91.84375 c 15.3442,3.21497 29.3384,12.87959 43.375,19.8125 7.9607,3.00474 18.5932,11.18355 12.3437,20.5625 -10.5417,7.44754 -25.3218,2.49785 -37.375,2.1875 -9.584,-2.74285 -24.6567,-1.81581 -29.2812,-12.375 -0.6005,-9.97191 -2.8984,-28.59836 10.9375,-30.1875 z m 239.6875,0.5625 c 15.5899,-0.56149 18.5727,25.41586 8.75,33.6875 -15.5107,10.00181 -35.7627,9.01709 -53.625,9.15625 -8.5831,1.3502 -16.9442,-9.12284 -8.2188,-15.25 15.5063,-12.33591 33.9426,-22.30471 53.0938,-27.59375 z" id="rect3000-1-5" style="font-size:medium;font-style:normal;font-variant:normal;font-weight:normal;font-stretch:normal;text-indent:0;text-align:start;text-decoration:none;line-height:normal;letter-spacing:normal;word-spacing:normal;text-transform:none;direction:ltr;block-progression:tb;writing-mode:lr-tb;text-anchor:start;baseline-shift:baseline;color:#000000;fill:#222222;fill-opacity:1;fill-rule:nonzero;stroke:none;stroke-width:12.25719261;marker:none;visibility:visible;display:inline;overflow:visible;enable-background:accumulate;font-family:Sans;-inkscape-font-specification:Sans"/></svg>