<svg width="1792" height="1792" xmlns="http://www.w3.org/2000/svg">

 <g>
  <title>background</title>
  <rect fill="none" id="canvas_background" height="402" width="582" y="-1" x="-1"/>
 </g>
 <g>
  <title>Layer 1</title>
  <path fill="#333333" id="svg_1" d="m1536,0q26,0 45,19t19,45l0,1664q0,26 -19,45t-45,19l-1280,0q-26,0 -45,-19t-19,-45l0,-1664q0,-26 19,-45t45,-19l1280,0zm-832,288l0,64q0,14 9,23t23,9l64,0q14,0 23,-9t9,-23l0,-64q0,-14 -9,-23t-23,-9l-64,0q-14,0 -23,9t-9,23zm0,256l0,64q0,14 9,23t23,9l64,0q14,0 23,-9t9,-23l0,-64q0,-14 -9,-23t-23,-9l-64,0q-14,0 -23,9t-9,23zm0,256l0,64q0,14 9,23t23,9l64,0q14,0 23,-9t9,-23l0,-64q0,-14 -9,-23t-23,-9l-64,0q-14,0 -23,9t-9,23zm0,256l0,64q0,14 9,23t23,9l64,0q14,0 23,-9t9,-23l0,-64q0,-14 -9,-23t-23,-9l-64,0q-14,0 -23,9t-9,23zm-128,320l0,-64q0,-14 -9,-23t-23,-9l-64,0q-14,0 -23,9t-9,23l0,64q0,14 9,23t23,9l64,0q14,0 23,-9t9,-23zm0,-256l0,-64q0,-14 -9,-23t-23,-9l-64,0q-14,0 -23,9t-9,23l0,64q0,14 9,23t23,9l64,0q14,0 23,-9t9,-23zm0,-256l0,-64q0,-14 -9,-23t-23,-9l-64,0q-14,0 -23,9t-9,23l0,64q0,14 9,23t23,9l64,0q14,0 23,-9t9,-23zm0,-256l0,-64q0,-14 -9,-23t-23,-9l-64,0q-14,0 -23,9t-9,23l0,64q0,14 9,23t23,9l64,0q14,0 23,-9t9,-23zm0,-256l0,-64q0,-14 -9,-23t-23,-9l-64,0q-14,0 -23,9t-9,23l0,64q0,14 9,23t23,9l64,0q14,0 23,-9t9,-23zm512,1280l0,-192q0,-14 -9,-23t-23,-9l-320,0q-14,0 -23,9t-9,23l0,192q0,14 9,23t23,9l320,0q14,0 23,-9t9,-23zm0,-512l0,-64q0,-14 -9,-23t-23,-9l-64,0q-14,0 -23,9t-9,23l0,64q0,14 9,23t23,9l64,0q14,0 23,-9t9,-23zm0,-256l0,-64q0,-14 -9,-23t-23,-9l-64,0q-14,0 -23,9t-9,23l0,64q0,14 9,23t23,9l64,0q14,0 23,-9t9,-23zm0,-256l0,-64q0,-14 -9,-23t-23,-9l-64,0q-14,0 -23,9t-9,23l0,64q0,14 9,23t23,9l64,0q14,0 23,-9t9,-23zm0,-256l0,-64q0,-14 -9,-23t-23,-9l-64,0q-14,0 -23,9t-9,23l0,64q0,14 9,23t23,9l64,0q14,0 23,-9t9,-23zm256,1024l0,-64q0,-14 -9,-23t-23,-9l-64,0q-14,0 -23,9t-9,23l0,64q0,14 9,23t23,9l64,0q14,0 23,-9t9,-23zm0,-256l0,-64q0,-14 -9,-23t-23,-9l-64,0q-14,0 -23,9t-9,23l0,64q0,14 9,23t23,9l64,0q14,0 23,-9t9,-23zm0,-256l0,-64q0,-14 -9,-23t-23,-9l-64,0q-14,0 -23,9t-9,23l0,64q0,14 9,23t23,9l64,0q14,0 23,-9t9,-23zm0,-256l0,-64q0,-14 -9,-23t-23,-9l-64,0q-14,0 -23,9t-9,23l0,64q0,14 9,23t23,9l64,0q14,0 23,-9t9,-23zm0,-256l0,-64q0,-14 -9,-23t-23,-9l-64,0q-14,0 -23,9t-9,23l0,64q0,14 9,23t23,9l64,0q14,0 23,-9t9,-23z"/>
 </g>
</svg>