<svg width="512" height="512" xmlns="http://www.w3.org/2000/svg">

 <g>
  <title>background</title>
  <rect fill="none" id="canvas_background" height="402" width="582" y="-1" x="-1"/>
 </g>
 <g>
  <title>Layer 1</title>
  <path fill="#333333" id="svg_1" d="m437.5,385.471252l-130.6,-130.6l130.6,-130.6c14.1,-14.1 14.1,-36.8 0,-50.9c-14.1,-14.1 -36.8,-14.1 -50.9,0l-130.6,130.6l-130.6,-130.6c-14.1,-14.1 -36.8,-14.1 -50.9,0c-14.1,14.1 -14.1,36.8 0,50.9l130.6,130.6l-130.6,130.6c-14.1,14.1 -14.1,36.8 0,50.9c14.1,14.1 36.8,14.1 50.9,0l130.6,-130.6l130.6,130.6c14.1,14.1 36.8,14.1 50.9,0c14,-14.1 14,-36.9 0,-50.9z"/>
 </g>
</svg>