<svg width="1792" height="1792" xmlns="http://www.w3.org/2000/svg">

 <g>
  <title>background</title>
  <rect fill="none" id="canvas_background" height="402" width="582" y="-1" x="-1"/>
 </g>
 <g>
  <title>Layer 1</title>
  <path fill="#ffffff" id="svg_1" d="m1280,1120l0,-192q0,-14 -9,-23t-23,-9l-224,0l0,-224q0,-14 -9,-23t-23,-9l-192,0q-14,0 -23,9t-9,23l0,224l-224,0q-14,0 -23,9t-9,23l0,192q0,14 9,23t23,9l224,0l0,224q0,14 9,23t23,9l192,0q14,0 23,-9t9,-23l0,-224l224,0q14,0 23,-9t9,-23zm-640,-736l512,0l0,-128l-512,0l0,128zm-384,0l0,1280l-32,0q-92,0 -158,-66t-66,-158l0,-832q0,-92 66,-158t158,-66l32,0zm1184,0l0,1280l-1088,0l0,-1280l160,0l0,-160q0,-40 28,-68t68,-28l576,0q40,0 68,28t28,68l0,160l160,0zm352,224l0,832q0,92 -66,158t-158,66l-32,0l0,-1280l32,0q92,0 158,66t66,158z"/>
 </g>
</svg>