<svg width="1792" height="1792" xmlns="http://www.w3.org/2000/svg">

 <g>
  <title>background</title>
  <rect fill="none" id="canvas_background" height="402" width="582" y="-1" x="-1"/>
 </g>
 <g>
  <title>Layer 1</title>
  <path fill="#ffffff" id="svg_1" d="m1047,996l0,-4l-24,-320q-1,-13 -11,-22.5t-23,-9.5l-186,0q-13,0 -23,9.5t-11,22.5l-24,320l0,4q-1,12 8,20t21,8l244,0q12,0 21,-8t8,-20zm759,467q0,73 -46,73l-704,0q13,0 22,-9.5t8,-22.5l-20,-256q-1,-13 -11,-22.5t-23,-9.5l-272,0q-13,0 -23,9.5t-11,22.5l-20,256q-1,13 8,22.5t22,9.5l-704,0q-46,0 -46,-73q0,-54 26,-116l417,-1044q8,-19 26,-33t38,-14l339,0q-13,0 -23,9.5t-11,22.5l-15,192q-1,14 8,23t22,9l166,0q13,0 22,-9t8,-23l-15,-192q-1,-13 -11,-22.5t-23,-9.5l339,0q20,0 38,14t26,33l417,1044q26,62 26,116z"/>
 </g>
</svg>