<svg width="24" height="24" xmlns="http://www.w3.org/2000/svg">

 <g>
  <title>background</title>
  <rect fill="none" id="canvas_background" height="402" width="582" y="-1" x="-1"/>
 </g>
 <g>
  <title>Layer 1</title>
  <path fill="#333333" id="svg_2" d="m9.047891,9c0,-1.7 1.3,-3 3,-3s3,1.3 3,3c0,1.7 -1.3,3 -3,3s-3,-1.3 -3,-3zm3,5c-4.6,0 -6,3.3 -6,3.3l0,1.7l12,0l0,-1.7c0,0 -1.4,-3.3 -6,-3.3z"/>
  <circle id="svg_5" r="2.5" cy="8.5" cx="18.5"/>
  <path id="svg_7" d="m18.5,13c-1.2,0 -2.1,0.3 -2.8,0.8c2.3,1.1 3.2,3 3.2,3.2l0,0.1l4.1,0l0,-1.3c0,-0.1 -1.1,-2.8 -4.5,-2.8z"/>
  <circle fill="#333333" id="svg_10" r="2.5" cy="8.5" cx="18.5"/>
  <path fill="#333333" id="svg_12" d="m18.5,13c-1.2,0 -2.1,0.3 -2.8,0.8c2.3,1.1 3.2,3 3.2,3.2l0,0.1l4.1,0l0,-1.3c0,-0.1 -1.1,-2.8 -4.5,-2.8z"/>
  <circle fill="#333333" id="svg_15" r="2.5" cy="8.5" cx="5.5"/>
  <path fill="#333333" id="svg_17" d="m5.547891,13c1.2,0 2.1,0.3 2.8,0.8c-2.3,1.1 -3.2,3 -3.2,3.2l0,0.1l-4.1,0l0,-1.3c0,-0.1 1.1,-2.8 4.5,-2.8z"/>
 </g>
</svg>