<svg width="32" height="32" xmlns="http://www.w3.org/2000/svg">

 <g>
  <title>background</title>
  <rect fill="none" id="canvas_background" height="402" width="582" y="-1" x="-1"/>
 </g>
 <g>
  <title>Layer 1</title>
  <g stroke="null" id="svg_4">
   <path stroke="null" id="svg_2" fill="#333333" d="m23.42467,15.327245c-1.398731,3.196604 -4.449562,5.870275 -7.407838,5.870275c-3.611943,0 -6.235865,-2.642434 -7.634597,-5.837881c-8.134391,4.213548 -7.109349,14.876993 -7.109349,14.876993c0,1.460049 1.149991,1.671767 2.501288,1.671767l12.241501,0l12.22299,0c1.353611,0 2.507072,-0.212876 2.507072,-1.671767c0.001157,0 0.812167,-10.694683 -7.321068,-14.909387z"/>
   <path stroke="null" id="svg_3" fill="#333333" d="m16.015675,19.464435c4.073559,0 7.311812,-5.830939 7.311812,-10.648405c0,-4.818623 -3.301885,-8.724427 -7.375444,-8.724427c-4.073559,0 -7.376601,3.905804 -7.376601,8.724427c0,4.818623 3.365516,10.648405 7.440232,10.648405z"/>
  </g>
 </g>
</svg>