<svg width="52" height="52" xmlns="http://www.w3.org/2000/svg">

 <g>
  <title>background</title>
  <rect fill="none" id="canvas_background" height="402" width="582" y="-1" x="-1"/>
 </g>
 <g>
  <title>Layer 1</title>
  <path fill="#ffffff" id="svg_2" d="m49.46567,41.25995l-20.25,-34.40997c-0.69,-1.15998 -1.89001,-1.84998 -3.22003,-1.84998c-1.32001,0 -2.52997,0.69 -3.20996,1.84998l-20.25,34.40997c-0.71002,1.20001 -0.72003,2.64001 -0.03003,3.85004c0.67999,1.17999 1.89002,1.89001 3.23999,1.89001l40.51001,0c1.34998,0 2.56,-0.71002 3.22998,-1.89001c0.70001,-1.21003 0.69,-2.65003 -0.01996,-3.85004zm-25.5293,-21.40466l3.38086,0l0,3.18701l-0.72461,8.91894l-1.93164,0l-0.72461,-8.91894l0,-3.18701zm2.97022,17.34326c-0.354,0.3623 -0.77686,0.54394 -1.26758,0.54394c-0.49121,0 -0.91406,-0.18164 -1.26807,-0.54394c-0.35449,-0.36231 -0.53125,-0.79395 -0.53125,-1.29688c0,-0.50195 0.17676,-0.93457 0.53125,-1.29687c0.35401,-0.36231 0.77686,-0.54395 1.26807,-0.54395c0.49072,0 0.91358,0.18164 1.26758,0.54395s0.53125,0.79492 0.53125,1.29687c0,0.50293 -0.17725,0.93457 -0.53125,1.29688z"/>
 </g>
</svg>